<?xml version="1.0" standalone="no"?> <!DOCTYPE svg PUBLIC "-//W3C//DTD SVG 20010904//EN" "http://www.w3.org/TR/2001/REC-SVG-20010904/DTD/svg10.dtd"> <svg version="1.0" xmlns="http://www.w3.org/2000/svg" width="34.000000pt" height="35.000000pt" viewBox="0 0 34.000000 35.000000" preserveAspectRatio="xMidYMid meet"> <g transform="translate(0.000000,35.000000) scale(0.050000,-0.050000)" fill="#0058bb" stroke="none"> <path d="M213 660 c-168 -16 -193 -53 -193 -280 0 -346 22 -367 362 -357 264 8 271 14 282 212 l7 145 -134 0 c-144 0 -171 -16 -137 -80 16 -30 34 -37 69 -29 57 15 80 -17 51 -71 -19 -35 -41 -40 -191 -40 l-169 0 0 180 0 180 164 0 c90 0 193 -11 230 -24 95 -35 149 15 99 92 -43 66 -214 94 -440 72z"/> </g> </svg>